<svg xmlns="http://www.w3.org/2000/svg" width="128" height="128" id="check"><path fill="#3B97D3" d="M120.2 32.3c-3.1-3.1-8.2-3.1-11.3 0L66 75.2 43.2 52.3c-3.1-3.1-8.2-3.1-11.3 0-3.1 3.1-3.1 8.2 0 11.3l28.5 28.5c1.6 1.6 3.6 2.3 5.7 2.3s4.1-.8 5.7-2.3l48.6-48.6c3-3 3-8.1-.2-11.2zm-1.4 9.9L70.3 90.7c-1.1 1.1-2.6 1.8-4.2 1.8s-3.1-.6-4.2-1.8L33.3 62.2c-1.1-1.1-1.8-2.6-1.8-4.2s.6-3.1 1.8-4.2c1.1-1.1 2.6-1.8 4.2-1.8s3.1.6 4.2 1.8L66 78l44.3-44.3c1.1-1.1 2.6-1.8 4.2-1.8s3.1.6 4.2 1.8c1.1 1.1 1.8 2.6 1.8 4.2s-.5 3.1-1.7 4.3z"></path><path fill="#2C3E50" d="M110.4 56.2c.4 2.4.6 5 .6 7.5 0 26.5-21.5 48-48 48s-48-21.5-48-48 21.5-48 48-48c16.2 0 30.5 8.1 39.2 20.4l2.9-2.9c-9.4-13-24.8-21.5-42.1-21.5-28.7 0-52 23.3-52 52s23.3 52 52 52 52-23.3 52-52c0-3.8-.4-7.4-1.2-10.9l-3.4 3.4z"></path></svg>