<svg xmlns="http://www.w3.org/2000/svg" data-name="Layer 18" viewBox="0 0 32 32" id="finance-idea"><path d="M16,13a1,1,0,0,1,1,1h2a3,3,0,0,0-2-2.816V10H15v1.184A2.993,2.993,0,0,0,16,17a1,1,0,1,1-1,1H13a3,3,0,0,0,2,2.816V22h2V20.816A2.993,2.993,0,0,0,16,15,1,1,0,0,1,16,13Z"></path><rect width="2" height="3" x="15" y="2"></rect><rect width="3" height="2" x="27" y="15"></rect><rect width="3" height="2" x="2" y="15"></rect><rect width="3" height="2" x="23.339" y="6.161" transform="rotate(-45 24.838 7.162)"></rect><rect width="2" height="3" x="6.161" y="5.661" transform="rotate(-45 7.161 7.16)"></rect><rect width="2" height="3" x="23.839" y="23.339" transform="rotate(-45 24.839 24.84)"></rect><rect width="3" height="2" x="5.661" y="23.839" transform="rotate(-45 7.161 24.839)"></rect><path d="M22.963,8.823A9.9,9.9,0,0,0,15.691,6,10.064,10.064,0,0,0,6,16.037a9.928,9.928,0,0,0,3.9,7.875A2.924,2.924,0,0,1,11,26.227V29a1,1,0,0,0,1,1h8a1,1,0,0,0,1-1V26.228a3.022,3.022,0,0,1,1.181-2.377A9.988,9.988,0,0,0,22.963,8.823ZM13,28V27h6v1H13Zm7.944-5.722A5.059,5.059,0,0,0,19.159,25H12.844a4.859,4.859,0,0,0-1.724-2.672A7.941,7.941,0,0,1,8,16.029,8.051,8.051,0,0,1,15.752,8,7.993,7.993,0,0,1,20.944,22.278Z"></path></svg>