<svg data-v-fde0c5aa="" xmlns="http://www.w3.org/2000/svg" viewBox="0 0 300 300" class="font"><!----><defs data-v-fde0c5aa=""><!----></defs><rect data-v-fde0c5aa="" fill="#FCF8E4" x="0" y="0" width="300px" height="300px" class="logo-background-square"></rect><defs data-v-fde0c5aa=""><linearGradient data-v-fde0c5aa="" gradientTransform="rotate(25)" id="f7ba4d84-0f82-417e-9b82-db1d4216d6b5" x1="0%" y1="0%" x2="100%" y2="0%"><stop data-v-fde0c5aa="" offset="0%" stop-color="#E98C00" stop-opacity="1"></stop><stop data-v-fde0c5aa="" offset="100%" stop-color="#E1FD00" stop-opacity="1"></stop></linearGradient></defs><g data-v-fde0c5aa="" id="75372c3f-163f-4836-872c-7d73e1a31b90" fill="url(#f7ba4d84-0f82-417e-9b82-db1d4216d6b5)" transform="matrix(5.047057826903649,0,0,5.047057826903649,38.68651853195104,108.88855780782566)"><path d="M3.01 6.54L3.01 6.54L3.01 6.54Q2.00 6.56 1.15 7.23L1.15 7.23L1.15 7.23Q0.31 7.90 0.73 8.74L0.73 8.74L1.85 8.07L1.85 8.07Q1.63 6.90 3.05 7.03L3.05 7.03L3.05 7.03Q4.48 7.15 4.29 8.89L4.29 8.89L4.29 8.89Q3.19 8.39 2.31 8.61L2.31 8.61L2.31 8.61Q1.43 8.82 0.69 9.71L0.69 9.71L0.69 9.71Q0.10 10.58 0.32 11.18L0.32 11.18L0.32 11.18Q0.53 11.79 1.02 12.23L1.02 12.23L1.02 12.23Q1.50 12.67 2.10 12.71L2.10 12.71L2.10 12.71Q2.69 12.76 3.10 12.48L3.10 12.48L3.10 12.48Q3.51 12.20 4.31 11.49L4.31 11.49L4.31 11.49Q4.38 12.36 4.87 12.76L4.87 12.76L5.98 11.80L5.89 11.64L5.89 11.64Q5.33 12.10 5.26 10.58L5.26 10.58L5.27 8.14L5.27 8.14Q5.24 7.23 4.63 6.88L4.63 6.88L4.63 6.88Q4.03 6.53 3.01 6.54ZM3.99 9.84L3.99 9.84L4.27 9.47L4.27 11.08L4.27 11.08Q3.40 11.95 2.78 11.90L2.78 11.90L2.78 11.90Q2.16 11.85 1.74 11.48L1.74 11.48L1.74 11.48Q1.31 11.12 1.12 10.64L1.12 10.64L1.12 10.64Q0.93 10.17 1.20 9.71L1.20 9.71L1.20 9.71Q1.46 9.26 2.25 9.19L2.25 9.19L2.25 9.19Q3.04 9.11 3.99 9.84ZM7.40 3.49L6.45 4.20L6.45 4.20Q6.88 4.68 6.77 7.22L6.77 7.22L6.77 7.22Q6.67 9.76 6.72 10.65L6.72 10.65L6.72 10.65Q6.77 11.55 7.93 12.25L7.93 12.25L7.93 12.25Q9.09 12.96 9.96 12.54L9.96 12.54L9.96 12.54Q10.83 12.13 11.44 11.45L11.44 11.45L11.44 11.45Q12.05 10.77 12.22 9.68L12.22 9.68L12.22 9.68Q12.39 8.60 11.78 7.72L11.78 7.72L11.78 7.72Q11.18 6.84 10.24 6.66L10.24 6.66L10.24 6.66Q9.31 6.48 7.77 7.49L7.77 7.49L7.77 7.49Q7.92 4.43 7.72 3.98L7.72 3.98L7.72 3.98Q7.53 3.52 7.40 3.49L7.40 3.49ZM8.81 7.42L8.81 7.42L8.81 7.42Q9.57 7.31 10.27 7.86L10.27 7.86L10.27 7.86Q10.97 8.40 11.13 9.35L11.13 9.35L11.13 9.35Q11.29 10.29 10.99 11.10L10.99 11.10L10.99 11.10Q10.69 11.91 10.01 11.91L10.01 11.91L10.01 11.91Q9.33 11.91 8.91 11.72L8.91 11.72L8.91 11.72Q8.50 11.53 8.06 11.05L8.06 11.05L8.06 11.05Q7.63 10.56 7.79 8.14L7.79 8.14L7.79 8.14Q8.05 7.52 8.81 7.42ZM15.79 6.53L15.79 6.53L15.79 6.53Q15.13 6.63 14.68 6.92L14.68 6.92L14.68 6.92Q14.23 7.21 13.87 7.57L13.87 7.57L13.87 7.57Q13.51 7.94 13.41 8.43L13.41 8.43L13.41 8.43Q13.32 8.93 13.74 9.37L13.74 9.37L13.74 9.37Q14.17 9.80 15.22 10.02L15.22 10.02L15.22 10.02Q16.28 10.24 16.68 10.47L16.68 10.47L16.68 10.47Q17.08 10.70 17.17 11.11L17.17 11.11L17.17 11.11Q17.25 11.53 16.96 11.79L16.96 11.79L16.96 11.79Q16.66 12.05 15.88 11.93L15.88 11.93L15.88 11.93Q15.10 11.81 14.69 11.55L14.69 11.55L14.69 11.55Q14.29 11.29 13.93 10.89L13.93 10.89L13.93 10.89Q13.57 10.50 13.84 10.34L13.84 10.34L13.75 10.25L12.98 10.84L12.98 10.84Q12.86 11.20 13.25 11.70L13.25 11.70L13.25 11.70Q13.64 12.21 14.23 12.52L14.23 12.52L14.23 12.52Q14.81 12.82 15.53 12.80L15.53 12.80L15.53 12.80Q16.26 12.78 16.86 12.34L16.86 12.34L16.86 12.34Q17.46 11.90 17.76 11.35L17.76 11.35L17.76 11.35Q18.06 10.81 17.97 10.36L17.97 10.36L17.97 10.36Q17.88 9.91 17.46 9.56L17.46 9.56L17.46 9.56Q17.05 9.20 15.74 8.95L15.74 8.95L15.74 8.95Q14.44 8.70 14.38 8.09L14.38 8.09L14.38 8.09Q14.33 7.48 14.92 7.31L14.92 7.31L14.92 7.31Q15.52 7.14 16.23 7.45L16.23 7.45L16.23 7.45Q16.95 7.76 16.67 8.13L16.67 8.13L16.75 8.24L17.56 7.40L17.56 7.40Q17.46 6.93 16.96 6.68L16.96 6.68L16.96 6.68Q16.45 6.43 15.79 6.53ZM21 6.45L21 6.45Q19.85 7.21 19.38 7.77L19.38 7.77L19.38 7.77Q18.90 8.33 18.71 8.89L18.71 8.89L18.71 8.89Q18.52 9.46 18.65 10.32L18.65 10.32L18.65 10.32Q18.77 11.17 19.64 11.96L19.64 11.96L19.64 11.96Q20.51 12.75 21.03 12.75L21.03 12.75L21.03 12.75Q21.55 12.76 22.66 11.73L22.66 11.73L22.66 11.73Q23.09 11.34 23.48 10.82L23.48 10.82L23.48 10.82Q23.88 10.31 23.99 9.74L23.99 9.74L23.99 9.74Q24.10 9.17 23.93 8.50L23.93 8.50L23.93 8.50Q23.75 7.83 22.95 7.04L22.95 7.04L22.95 7.04Q22.14 6.25 21 6.45L21 6.45ZM20.64 7.26L20.64 7.26L20.64 7.26Q21.42 7.08 22.36 8.24L22.36 8.24L22.36 8.24Q23.30 9.41 23.10 10.23L23.10 10.23L23.10 10.23Q22.90 11.06 22.24 11.56L22.24 11.56L22.24 11.56Q21.59 12.05 20.85 11.45L20.85 11.45L20.85 11.45Q20.11 10.84 19.67 10.15L19.67 10.15L19.67 10.15Q19.24 9.46 19.54 8.45L19.54 8.45L19.54 8.45Q19.85 7.43 20.64 7.26ZM25.83 3.53L24.88 4.05L24.88 4.05Q25.18 4.42 25.16 5.35L25.16 5.35L25.16 5.35Q24.98 11.53 25.09 12.01L25.09 12.01L25.09 12.01Q25.20 12.50 25.77 12.80L25.77 12.80L27.09 11.96L26.95 11.72L26.95 11.72Q26.46 12.04 26.21 11.35L26.21 11.35L26.21 11.35Q25.96 10.66 26.17 4.89L26.17 4.89L26.17 4.89Q26.15 3.89 25.83 3.53L25.83 3.53ZM32.89 12.76L34.27 11.83L34.18 11.71L34.18 11.71Q33.55 12.12 33.56 10.52L33.56 10.52L33.56 10.52Q33.74 7.62 33.68 7.19L33.68 7.19L33.68 7.19Q33.62 6.76 33.03 6.37L33.03 6.37L31.95 7.08L32.01 7.21L32.01 7.21Q32.56 6.89 32.56 7.90L32.56 7.90L32.56 7.90Q32.56 8.91 32.48 10.80L32.48 10.80L32.48 10.80Q31.17 12.24 30.21 11.95L30.21 11.95L30.21 11.95Q29.25 11.66 29.39 9.75L29.39 9.75L29.39 9.75Q29.43 7.70 29.38 7.22L29.38 7.22L29.38 7.22Q29.33 6.73 28.74 6.36L28.74 6.36L27.70 7.10L27.79 7.25L27.79 7.25Q28.27 7.01 28.33 7.94L28.33 7.94L28.33 7.94Q28.40 8.88 28.33 10.32L28.33 10.32L28.33 10.32Q28.29 11.20 28.55 11.78L28.55 11.78L28.55 11.78Q28.82 12.37 29.50 12.61L29.50 12.61L29.50 12.61Q30.17 12.84 30.99 12.50L30.99 12.50L30.99 12.50Q31.80 12.15 32.46 11.46L32.46 11.46L32.46 11.46Q32.37 12.41 32.89 12.76L32.89 12.76ZM36.59 3.96L35.72 4.63L35.72 4.63Q36.20 4.55 36.05 6.59L36.05 6.59L35.47 6.62L34.54 7.56L34.69 7.83L34.69 7.83Q35.13 7.33 35.96 7.41L35.96 7.41L35.96 7.41Q35.83 11.04 35.96 11.58L35.96 11.58L35.96 11.58Q36.10 12.11 36.68 12.68L36.68 12.68L36.68 12.68Q37.13 12.24 38.40 11.30L38.40 11.30L38.32 10.98L38.32 10.98Q37.02 11.88 36.92 10.99L36.92 10.99L36.92 10.99Q36.82 10.09 36.94 7.46L36.94 7.46L37.78 7.46L38.40 6.75L38.35 6.61L36.99 6.64L36.99 4.83L36.99 4.83Q36.91 4.25 36.59 3.96L36.59 3.96ZM42.26 6.60L42.26 6.60L42.26 6.60Q41.19 6.43 40.26 7.26L40.26 7.26L40.26 7.26Q39.33 8.09 39.07 9.20L39.07 9.20L39.07 9.20Q38.81 10.31 39.23 11.26L39.23 11.26L39.23 11.26Q39.66 12.22 40.80 12.62L40.80 12.62L40.80 12.62Q41.73 12.93 42.73 12.18L42.73 12.18L42.73 12.18Q43.74 11.43 43.85 10.84L43.85 10.84L43.64 10.68L43.64 10.68Q42.82 11.85 42.04 11.81L42.04 11.81L42.04 11.81Q41.26 11.76 40.88 11.46L40.88 11.46L40.88 11.46Q40.49 11.15 40.28 10.80L40.28 10.80L42.17 9.54L42.17 9.54Q43.61 8.65 43.47 7.70L43.47 7.70L43.47 7.70Q43.33 6.76 42.26 6.60ZM39.83 8.75L39.83 8.75L39.83 8.75Q39.83 8.12 40.34 7.58L40.34 7.58L40.34 7.58Q40.84 7.04 41.44 7.19L41.44 7.19L41.44 7.19Q42.04 7.34 42.28 8.00L42.28 8.00L42.28 8.00Q42.51 8.67 42.22 9.02L42.22 9.02L42.22 9.02Q41.92 9.37 40.10 10.40L40.10 10.40L40.10 10.40Q39.94 10.04 39.88 9.71L39.88 9.71L39.88 9.71Q39.82 9.37 39.83 8.75Z"></path></g><!----><!----></svg>