<?xml version="1.0" standalone="no"?>
<!DOCTYPE svg PUBLIC "-//W3C//DTD SVG 20010904//EN"
 "http://www.w3.org/TR/2001/REC-SVG-20010904/DTD/svg10.dtd">
<svg version="1.0" xmlns="http://www.w3.org/2000/svg"
 width="300.000000pt" height="300.000000pt" viewBox="0 0 300.000000 300.000000"
 preserveAspectRatio="xMidYMid meet">
<metadata>
Created by potrace 1.10, written by Peter Selinger 2001-2011
</metadata>
<g transform="translate(0.000000,300.000000) scale(0.100000,-0.100000)"
fill="#000000" stroke="none">
<path d="M1395 2023 l-107 -198 23 -40 c62 -111 69 -118 101 -111 17 3 50 6
75 6 l44 0 -37 58 c-20 31 -42 64 -47 74 -8 12 -3 31 22 78 18 34 31 63 29 65
-13 14 -68 -71 -68 -105 0 -16 -7 -20 -35 -20 -19 0 -35 3 -35 6 0 3 27 55 61
115 33 61 58 117 55 125 -3 7 0 13 7 11 6 -1 13 9 15 23 2 14 5 31 8 39 2 8
54 -68 113 -168 60 -100 114 -188 119 -194 5 -7 19 -31 32 -54 22 -39 22 -46
10 -83 -15 -44 -30 -37 -30 14 0 19 -34 84 -99 190 -54 89 -107 177 -117 196
l-19 35 -3 -62 -3 -62 119 -198 c66 -109 118 -201 116 -204 -2 -4 -93 -8 -201
-9 -109 -1 -247 -5 -306 -9 l-108 -6 -35 -64 -36 -64 169 6 c92 4 300 10 461
13 161 4 291 10 290 13 -2 4 -19 32 -38 64 l-35 58 -68 -2 c-37 -1 -70 1 -73
4 -3 3 8 30 25 60 17 30 31 60 31 66 0 7 -16 37 -35 67 -20 30 -90 146 -156
257 -67 111 -123 203 -124 205 -1 1 -50 -87 -110 -195z m156 -35 c11 -11 36
-50 56 -86 21 -35 45 -75 53 -87 45 -68 81 -137 77 -148 -2 -6 -21 17 -43 51
-21 35 -60 98 -86 140 -26 43 -51 82 -56 88 -12 13 -32 51 -32 58 0 12 13 5
31 -16z m-162 -206 c17 -27 43 -55 59 -62 27 -14 27 -14 3 -18 -42 -7 -66 7
-98 58 -38 57 -40 70 -14 70 12 0 31 -18 50 -48z m432 -262 c16 0 29 -4 29
-10 0 -6 -47 -10 -121 -10 -66 0 -118 -3 -116 -7 3 -5 64 -7 136 -5 123 3 130
4 137 24 6 21 7 21 21 -6 19 -36 7 -45 -62 -46 -27 -1 -72 -3 -100 -5 -27 -1
-171 -6 -320 -10 -148 -3 -281 -9 -295 -11 l-25 -6 25 21 c14 11 39 21 55 21
17 0 37 4 45 10 10 6 -1 8 -34 6 -29 -2 -44 0 -39 5 15 15 62 18 287 20 116 1
229 5 251 9 22 5 53 7 69 4 16 -2 41 -4 57 -4z"/>
<path d="M1343 1483 c37 -2 97 -2 135 0 37 2 6 3 -68 3 -74 0 -105 -1 -67 -3z"/>
<path d="M852 1322 c-9 -6 -12 -33 -10 -98 l3 -89 47 -3 c40 -3 52 1 73 22 30
30 32 49 7 74 -13 13 -18 29 -14 50 4 27 0 33 -23 42 -32 12 -65 13 -83 2z
m73 -47 c0 -13 -8 -21 -22 -23 -17 -3 -23 2 -23 16 0 10 3 22 7 26 13 13 38 1
38 -19z m21 -70 c9 -21 -15 -47 -40 -43 -15 2 -22 12 -24 31 -3 24 0 27 28 27
18 0 33 -6 36 -15z"/>
<path d="M1113 1320 c-12 -5 -24 -18 -28 -29 -12 -38 4 -59 55 -76 56 -19 62
-31 24 -45 -19 -8 -34 -7 -55 4 -28 14 -29 14 -29 -9 0 -20 7 -25 34 -31 49
-9 89 7 101 40 13 37 -3 58 -51 72 -24 7 -40 18 -43 29 -3 16 2 17 38 12 35
-4 41 -2 41 13 0 26 -45 37 -87 20z"/>
<path d="M1373 1316 c-64 -29 -76 -111 -24 -158 68 -61 161 -13 161 82 0 63
-74 104 -137 76z m81 -42 c19 -19 21 -64 3 -88 -16 -21 -60 -24 -82 -6 -17 14
-20 62 -5 91 13 23 62 26 84 3z"/>
<path d="M1627 1324 c-4 -4 -7 -49 -7 -101 l0 -93 45 0 c38 0 45 3 45 20 0 15
-7 20 -25 20 -23 0 -24 3 -27 77 -3 70 -13 95 -31 77z"/>
<path d="M1816 1322 c-2 -4 -2 -41 -1 -82 4 -84 22 -110 76 -110 52 0 69 29
69 121 0 71 -2 80 -17 77 -15 -3 -18 -16 -21 -80 -3 -78 -13 -95 -47 -82 -20
8 -28 42 -23 103 2 41 0 51 -14 55 -10 2 -20 1 -22 -2z"/>
<path d="M2064 1321 c-13 -13 -1 -31 21 -31 25 0 25 -1 25 -80 0 -73 2 -80 20
-80 18 0 20 7 20 80 0 79 0 80 25 80 17 0 25 6 25 18 0 14 -10 17 -66 17 -36
0 -68 -2 -70 -4z"/>
<path d="M2304 1321 c-2 -2 -4 -46 -4 -98 l0 -93 55 0 c48 0 55 2 55 20 0 16
-7 20 -35 20 -30 0 -35 3 -35 24 0 19 6 25 25 28 14 2 26 8 26 13 0 6 -12 11
-26 13 -17 2 -25 9 -25 23 0 15 7 19 36 19 27 0 35 4 32 16 -2 12 -15 17 -51
18 -27 0 -51 -1 -53 -3z"/>
<path d="M611 1234 c-36 -101 -37 -104 -12 -104 12 0 21 9 25 25 5 20 13 25
36 25 23 0 33 -6 40 -25 6 -16 17 -25 31 -25 16 0 19 4 14 18 -4 9 -19 52 -34
94 -21 64 -30 78 -47 78 -18 0 -27 -15 -53 -86z m58 -25 c-22 -13 -31 5 -18
37 l11 29 10 -29 c8 -22 7 -30 -3 -37z"/>
<path d="M1217 983 c-11 -19 -38 -126 -33 -131 9 -8 11 -2 27 58 9 31 20 54
27 53 7 -2 12 4 12 12 0 15 -25 21 -33 8z"/>
<path d="M1695 951 c-3 -22 -13 -47 -20 -58 -14 -17 -14 -17 -15 3 0 11 5 25
12 32 6 6 9 14 6 18 -10 9 -41 -44 -35 -60 3 -7 17 -13 30 -13 21 0 26 5 30
36 3 20 9 46 13 59 4 13 2 22 -4 22 -6 0 -13 -18 -17 -39z"/>
<path d="M1940 975 c-6 -8 -15 -29 -19 -47 -5 -18 -11 -43 -15 -55 -4 -13 -3
-23 2 -23 5 0 16 26 25 58 11 41 21 59 32 59 12 0 15 -7 11 -24 -3 -12 -9 -34
-12 -48 -4 -15 -2 -25 5 -25 6 0 11 9 11 20 0 10 5 31 12 45 10 22 9 27 -8 40
-24 18 -29 18 -44 0z"/>
<path d="M1391 933 c-14 -50 -14 -63 3 -63 8 0 13 11 13 28 0 15 4 37 8 50 4
13 3 22 -3 22 -6 0 -16 -17 -21 -37z"/>
<path d="M930 931 c-5 -11 -10 -27 -10 -36 0 -20 28 -31 43 -16 8 8 7 11 -6
11 -24 0 -21 31 3 37 26 7 26 23 0 23 -10 0 -24 -9 -30 -19z"/>
<path d="M1000 931 c-15 -28 -12 -51 6 -58 21 -8 44 21 44 54 0 29 -35 32 -50
4z m35 -13 c-11 -36 -25 -45 -25 -17 0 27 7 39 22 39 5 0 6 -10 3 -22z"/>
<path d="M1080 933 c0 -10 -3 -29 -6 -43 -5 -17 -3 -22 4 -15 15 15 26 75 13
75 -6 0 -11 -8 -11 -17z"/>
<path d="M1113 937 c0 -7 -3 -25 -7 -40 -3 -15 -4 -27 -1 -27 9 0 34 64 29 72
-8 12 -21 9 -21 -5z"/>
<path d="M1145 914 c-6 -32 -1 -54 9 -43 9 11 16 79 8 79 -6 0 -13 -16 -17
-36z"/>
<path d="M1252 938 c-18 -18 -15 -68 4 -68 22 0 43 29 44 58 0 24 -27 31 -48
10z m24 -34 c-5 -19 -10 -24 -17 -17 -8 8 -7 18 1 33 6 12 14 19 17 16 3 -3 2
-17 -1 -32z"/>
<path d="M1323 906 l-1 -41 14 33 c8 17 19 32 24 32 6 0 10 4 10 9 0 5 -10 9
-23 9 -20 0 -23 -6 -24 -42z"/>
<path d="M1484 925 c-17 -25 -13 -55 6 -55 6 0 8 5 5 11 -9 14 3 59 16 59 6 0
7 -13 3 -35 -4 -23 -2 -35 5 -35 6 0 11 11 11 24 0 13 3 31 6 40 10 27 -34 19
-52 -9z"/>
<path d="M1566 919 c-9 -48 -6 -57 9 -24 16 35 19 55 6 55 -5 0 -11 -14 -15
-31z"/>
<path d="M1604 927 c-1 -12 -4 -28 -5 -36 -2 -7 1 -15 8 -18 7 -2 11 4 11 14
-1 10 2 28 6 41 5 15 3 22 -6 22 -7 0 -14 -10 -14 -23z"/>
<path d="M1785 913 c6 -33 5 -35 -9 -24 -11 9 -16 10 -16 2 0 -18 31 -26 41
-10 4 8 5 25 2 38 -4 17 -2 22 6 17 6 -4 11 -2 11 3 0 6 -10 11 -21 11 -19 0
-21 -4 -14 -37z"/>
<path d="M1842 938 c-10 -13 -15 -34 -13 -54 2 -19 51 -14 51 5 0 9 3 26 6 39
5 17 2 22 -14 22 -11 0 -24 -6 -30 -12z"/>
<path d="M2028 905 c3 -38 1 -45 -14 -46 -12 0 -14 -3 -6 -6 7 -3 20 1 28 8
19 15 41 54 26 45 -6 -3 -12 4 -14 16 -6 43 -23 28 -20 -17z"/>
</g>
</svg>
