<svg xmlns="http://www.w3.org/2000/svg" data-name="Layer 25" viewBox="0 0 32 32" id="money-bag"><path d="M30,21a3,3,0,0,0-3-3H23.41a12.256,12.256,0,0,0-1.351-4.9l-1.453-2.748A6.821,6.821,0,0,0,19.665,9H21V7H18.8l0.987-2.052a2.191,2.191,0,0,0-.112-2.1A1.752,1.752,0,0,0,18.2,2H9.8a1.752,1.752,0,0,0-1.477.849,2.191,2.191,0,0,0-.112,2.1L9.2,7H7V9H8.335a6.818,6.818,0,0,0-.941,1.353L5.941,13.1a12.362,12.362,0,0,0-1.4,5.768V21.44a4.052,4.052,0,0,1-1.421,3.194A3.069,3.069,0,0,0,2,27.046,2.819,2.819,0,0,0,4.653,30H27a3,3,0,0,0,3-3V26a2.977,2.977,0,0,0-.78-2A2.977,2.977,0,0,0,30,22V21Zm-2,0v1a1,1,0,0,1-1,1H19a1,1,0,0,1-1-1V21a1,1,0,0,1,1-1h8A1,1,0,0,1,28,21ZM10.017,4.081A0.186,0.186,0,0,1,10,4h8a0.186,0.186,0,0,1-.017.081L16.579,7H11.421ZM4,27.046a1.08,1.08,0,0,1,.355-0.841A6.056,6.056,0,0,0,6.539,21.44V18.868a10.361,10.361,0,0,1,1.17-4.832l1.454-2.748A3.947,3.947,0,0,1,12.583,9h2.834a3.949,3.949,0,0,1,3.421,2.288l1.453,2.748A10.238,10.238,0,0,1,21.41,18H19a3,3,0,0,0-2.5,1.348A3,3,0,0,0,14,18a1,1,0,1,1,1-1h2a3,3,0,0,0-2-2.816V13H13v1.184A2.993,2.993,0,0,0,14,20a1,1,0,1,1-1,1H11a3,3,0,0,0,2,2.816V25h2V23.816a2.991,2.991,0,0,0,1.194-.785A2.987,2.987,0,0,0,16.78,24,2.977,2.977,0,0,0,16,26v1a2.965,2.965,0,0,0,.184,1H4.653A0.865,0.865,0,0,1,4,27.046ZM28,27a1,1,0,0,1-1,1H19a1,1,0,0,1-1-1V26a1,1,0,0,1,1-1h8a1,1,0,0,1,1,1v1Z"></path></svg>