<svg xmlns="http://www.w3.org/2000/svg" viewBox="0 0 80 80" id="pay-dollar"><path d="m60.772 48.152-17.123 4.48c.064-.335.101-.68.101-1.033 0-3.033-2.468-5.5-5.5-5.5h-22.5v-3a1 1 0 0 0-1-1h-9a1 1 0 0 0-1 1v25a1 1 0 0 0 1 1h9a1 1 0 0 0 1-1V65.56l20.185 7.849a11.045 11.045 0 0 0 4.794 1.095c2.27 0 4.519-.7 6.407-2.067l27.66-18a1 1 0 0 0 .267-1.42c-3.24-4.537-8.997-6.49-14.29-4.865zM13.75 67.099h-7v-23h7v23zm32.254 3.69c-2.687 1.943-6.213 2.256-9.274.787l-20.98-8.161V48.099h22.5c1.93 0 3.5 1.57 3.5 3.5s-1.57 3.5-3.5 3.5h-11.5a1 1 0 1 0 0 2h11.5a5.489 5.489 0 0 0 4.33-2.12l18.738-4.904a10.939 10.939 0 0 1 11.47 3.282L46.004 70.79zM27 23.5c0 9.925 8.075 18 18 18s18-8.075 18-18-8.075-18-18-18-18 8.075-18 18zm34 0c0 8.822-7.178 16-16 16s-16-7.178-16-16 7.178-16 16-16 16 7.178 16 16z"></path><path d="M44 12.5v1.096c-2.556.472-4.5 2.713-4.5 5.404 0 3.033 2.468 5.5 5.5 5.5 1.93 0 3.5 1.57 3.5 3.5s-1.57 3.5-3.5 3.5-3.5-1.57-3.5-3.5a1 1 0 1 0-2 0c0 2.69 1.944 4.932 4.5 5.404V34.5a1 1 0 1 0 2 0v-1.096c2.556-.472 4.5-2.713 4.5-5.404 0-3.033-2.468-5.5-5.5-5.5-1.93 0-3.5-1.57-3.5-3.5s1.57-3.5 3.5-3.5 3.5 1.57 3.5 3.5a1 1 0 1 0 2 0c0-2.69-1.944-4.932-4.5-5.404V12.5a1 1 0 1 0-2 0z"></path></svg>