<svg xmlns="http://www.w3.org/2000/svg" viewBox="0 0 32 32" id="payment"><g data-name="Layer 2"><path d="M11,31.06a8,8,0,0,1-7.4-4.94,1,1,0,0,1,.69-1.34h0a1,1,0,0,1,1.16.59A6,6,0,0,0,11,29.06l.36,0a6,6,0,0,0,.06-12l-.42,0a6,6,0,0,0-5.45,3.48,1,1,0,0,1-1.19.54h0a1,1,0,0,1-.64-1.36A8.06,8.06,0,0,1,11,15.06a4.84,4.84,0,0,1,.61,0A8,8,0,0,1,11.59,31,4.32,4.32,0,0,1,11,31.06Z"></path><path d="M13.78 24.74a2.66 2.66 0 0 1-.68 1.85 2.24 2.24 0 0 1-1.29.67v.67a.91.91 0 0 1-.91.91h0a.91.91 0 0 1-.91-.91v-.73a2.5 2.5 0 0 1-1.69-2 .71.71 0 0 1 .6-.88.69.69 0 0 1 .75.47 1.76 1.76 0 0 0 .34.63 1.3 1.3 0 0 0 1 .44 1.55 1.55 0 0 0 .78-.18 1.12 1.12 0 0 0 .21-.15 1 1 0 0 0 .36-.68 1 1 0 0 0-.12-.63.93.93 0 0 0-.38-.33l-.07 0c-.2-.09-.6-.22-1.19-.4L10 23.27a2.9 2.9 0 0 1-.67-.36 2.24 2.24 0 0 1-.66-.83A2.59 2.59 0 0 1 8.43 21a2.44 2.44 0 0 1 .31-1.24 2 2 0 0 1 .87-.83 2.22 2.22 0 0 1 .39-.16v-.54a.91.91 0 0 1 .91-.91h0a.91.91 0 0 1 .91.91v.51a2.28 2.28 0 0 1 1.05.56 2.26 2.26 0 0 1 .6 1 .71.71 0 0 1-.64.88h0a.68.68 0 0 1-.7-.46 1.08 1.08 0 0 0-.26-.44l0 0a1.27 1.27 0 0 0-.87-.27 1.4 1.4 0 0 0-.87.23l-.07.06a.68.68 0 0 0-.24.53.74.74 0 0 0 .24.54l0 0a3.9 3.9 0 0 0 1.27.51l.51.16a3.89 3.89 0 0 1 1 .48 2.16 2.16 0 0 1 .72.87A3.05 3.05 0 0 1 13.78 24.74zM18.38 16.06a4.65 4.65 0 0 1-.73-.06 2.52 2.52 0 0 1-2.13-2.49 2.5 2.5 0 0 1 .27-1.13.58.58 0 0 0 0-.56.57.57 0 0 0-.49-.27l-.14 0-11 3.58a2.06 2.06 0 0 1-.81.15A2.47 2.47 0 0 1 1 13.59a2.47 2.47 0 0 1 .65-2.78L4 8.79a1 1 0 0 1 1.41.12h0a1 1 0 0 1-.12 1.41l-2.39 2a.54.54 0 0 0-.06.57c.08.22.27.48.5.38L14.5 9.67a2.41 2.41 0 0 1 .76-.12 2.59 2.59 0 0 1 2.33 3.72A.52.52 0 0 0 18 14a2.54 2.54 0 0 0 1.74-.36 2.41 2.41 0 0 0 .35-.27l2.68-3.18a1.87 1.87 0 0 1 1.43-.67h1.35V4.81H12.42a1.64 1.64 0 0 0-1 .38L9.17 7.05a1 1 0 0 1-1.41-.12h0a1 1 0 0 1 .12-1.41l2.21-1.87a3.65 3.65 0 0 1 2.33-.85H27.53v8.75H24.19l-2.72 3.27a4.51 4.51 0 0 1-3.09 1.24z"></path><path d="M29.65,12.94H27.41a1.88,1.88,0,0,1-1.88-1.88V2.81A1.88,1.88,0,0,1,27.41.94h2.24a1.88,1.88,0,0,1,1.88,1.88v8.24A1.88,1.88,0,0,1,29.65,12.94Zm-2.12-2h2v-8h-2Z"></path></g></svg>